# xmcd
#
# Track frame offsets:
#	150
#	8338
#	27686
#	46479
#	67936
#	86651
#	101945
#	122672
#	144771
#	158292
#	177752
#	192219
#	214196
#	230299
#	253122
#
# Disc length: 3629 seconds
# Revision: 6
# Processed by: cddbd v1.5.2PL0 Copyright (c) Steve Scherf et al.
# Submitted via: dBpowerAMP V12.0
#
DISCID=bd0e2b0f
DTITLE=Various Artist - Blues Fury
DYEAR=2012
DGENRE=Blues
TTITLE0=Philip Sayce - Ruby Electric
TTITLE1=The Kenny Wayne Shepherd Band - Never Lookin' Back
TTITLE2=Beth Hart and Joe Bonamassa - For My Friends
TTITLE3=Chantel McGregor - I'm No Good For You
TTITLE4=Oli Brown - Here I Am
TTITLE5=Dana Fuchs - Nothing's What I Cry For
TTITLE6=Popa Chubby - Back To New York City
TTITLE7=Ian Siegal and The Youngest Sons - The Skinny
TTITLE8=Virgil and The Accelerators - Backstabber
TTITLE9=Erja Lyytinen - Voracious Love
TTITLE10=Giles Robson and The Dirty Aces - The Mighty Incinerator
TTITLE11=The Stone Electric - Tequila Mockingbird
TTITLE12=The Russ Tippins Electric Band - Little Josephine 
TTITLE13=Mitch Laddie - Time Is Running Away
TTITLE14=Laurence Jones Band - Bad Girl
EXTD=
EXTT0=
EXTT1=
EXTT2=
EXTT3=
EXTT4=
EXTT5=
EXTT6=
EXTT7=
EXTT8=
EXTT9=
EXTT10=
EXTT11=
EXTT12=
EXTT13=
EXTT14=
PLAYORDER=
